<?xml version="1.0" encoding="utf-8"?>
<!-- Generator: Adobe Illustrator 16.0.0, SVG Export Plug-In . SVG Version: 6.00 Build 0)  -->
<!DOCTYPE svg PUBLIC "-//W3C//DTD SVG 1.0//EN" "http://www.w3.org/TR/2001/REC-SVG-20010904/DTD/svg10.dtd">
<svg version="1.0" id="Layer_1" xmlns="http://www.w3.org/2000/svg" xmlns:xlink="http://www.w3.org/1999/xlink" x="0px" y="0px"
	 width="600px" height="142.934px" viewBox="0 177.745 600 142.934" enable-background="new 0 177.745 600 142.934"
	 xml:space="preserve">
<g>
	<linearGradient id="SVGID_1_" gradientUnits="userSpaceOnUse" x1="163.7656" y1="235.5195" x2="247.8779" y2="235.5195">
		<stop  offset="0.0015" style="stop-color:#DA8CFF"/>
		<stop  offset="1" style="stop-color:#9A55FF"/>
	</linearGradient>
	<path fill="url(#SVGID_1_)" d="M247.878,186.465l-32.049,63.084v35.025h-20.901V249.93l-31.162-63.465h23.878l16.468,37.496
		c0.337,0.76,1.118,3.336,2.344,7.727h0.253c0.507-2.955,1.204-5.468,2.09-7.537l16.911-37.686H247.878z"/>
	<linearGradient id="SVGID_2_" gradientUnits="userSpaceOnUse" x1="255.2251" y1="232.9541" x2="278.9771" y2="232.9541">
		<stop  offset="0.0015" style="stop-color:#DA8CFF"/>
		<stop  offset="1" style="stop-color:#9A55FF"/>
	</linearGradient>
	<path fill="url(#SVGID_2_)" d="M255.225,191.912c0-3.125,1.108-5.67,3.325-7.633s5.056-2.945,8.519-2.945
		c3.547,0,6.418,1.004,8.614,3.009c2.195,2.006,3.294,4.528,3.294,7.569c0,3.082-1.12,5.647-3.357,7.695
		c-2.239,2.048-5.089,3.071-8.551,3.071c-3.42,0-6.25-1.034-8.487-3.104C256.344,197.507,255.225,194.951,255.225,191.912z
		 M256.746,284.574v-70.051h20.395v70.051H256.746z"/>
	<linearGradient id="SVGID_3_" gradientUnits="userSpaceOnUse" x1="297.4712" y1="235.5195" x2="353.3984" y2="235.5195">
		<stop  offset="0.0015" style="stop-color:#DA8CFF"/>
		<stop  offset="1" style="stop-color:#9A55FF"/>
	</linearGradient>
	<path fill="url(#SVGID_3_)" d="M353.398,203.565h-35.025v25.208h32.238v17.102h-32.238v38.699h-20.902v-98.109h55.927V203.565z"/>
	<linearGradient id="SVGID_4_" gradientUnits="userSpaceOnUse" x1="363.6582" y1="249.5488" x2="430.0371" y2="249.5488">
		<stop  offset="0.0015" style="stop-color:#DA8CFF"/>
		<stop  offset="1" style="stop-color:#9A55FF"/>
	</linearGradient>
	<path fill="url(#SVGID_4_)" d="M430.037,255.313h-46.109c0.717,10.854,7.262,16.277,19.635,16.277c7.727,0,14.545-1.9,20.457-5.699
		v15.01c-6.377,3.59-14.736,5.385-25.082,5.385c-11.146,0-19.814-3.145-26-9.438c-6.186-6.291-9.279-15.053-9.279-26.285
		c0-11.189,3.295-20.278,9.881-27.268c6.588-6.988,14.863-10.482,24.828-10.482c9.924,0,17.682,3.009,23.277,9.025
		c5.594,6.018,8.393,14.283,8.393,24.797V255.313z M410.973,242.518c0-10.471-4.244-15.707-12.73-15.707
		c-3.506,0-6.609,1.436-9.311,4.307c-2.703,2.872-4.393,6.672-5.068,11.4H410.973z"/>
	<linearGradient id="SVGID_5_" gradientUnits="userSpaceOnUse" x1="443.3379" y1="248.6934" x2="509.9043" y2="248.6934">
		<stop  offset="0.0015" style="stop-color:#DA8CFF"/>
		<stop  offset="1" style="stop-color:#9A55FF"/>
	</linearGradient>
	<path fill="url(#SVGID_5_)" d="M509.904,284.574h-20.33v-39.079c0-11.315-4.076-16.975-12.225-16.975
		c-3.885,0-7.115,1.511-9.691,4.528c-2.574,3.02-3.863,6.873-3.863,11.56v39.966h-20.457v-70.051h20.457v11.146h0.254
		c5.109-8.57,12.625-12.857,22.549-12.857c15.537,0,23.307,9.627,23.307,28.883V284.574z"/>
	<linearGradient id="SVGID_6_" gradientUnits="userSpaceOnUse" x1="523.2051" y1="265.1299" x2="595.0938" y2="265.1299">
		<stop  offset="0.0015" style="stop-color:#DA8CFF"/>
		<stop  offset="1" style="stop-color:#9A55FF"/>
	</linearGradient>
	<path fill="url(#SVGID_6_)" d="M595.094,276.848c0,13.004-3.705,23.023-11.115,30.053c-7.41,7.031-18.082,10.547-32.018,10.547
		c-9.459,0-16.975-1.352-22.547-4.055v-17.48c7.262,4.223,14.588,6.334,21.977,6.334c7.305,0,13.016-1.953,17.133-5.859
		s6.176-9.32,6.176-16.246v-5.826h-0.316c-4.939,7.98-12.287,11.971-22.041,11.971c-8.826,0-15.889-3.145-21.188-9.438
		c-5.299-6.291-7.949-14.715-7.949-25.271c0-11.781,2.924-21.188,8.773-28.218c5.848-7.03,13.521-10.546,23.023-10.546
		c8.613,0,15.074,3.357,19.381,10.07h0.316v-8.359h20.395V276.848z M574.889,245.052c0-4.645-1.404-8.561-4.211-11.749
		c-2.809-3.188-6.346-4.782-10.609-4.782c-4.982,0-8.92,1.954-11.813,5.858c-2.893,3.906-4.338,9.385-4.338,16.438
		c0,6.123,1.393,10.947,4.18,14.473s6.48,5.287,11.084,5.287c4.645,0,8.424-1.793,11.338-5.383
		c2.914-3.588,4.369-8.254,4.369-13.998V245.052z"/>
</g>
<g>
	<g>
		
			<linearGradient id="SVGID_7_" gradientUnits="userSpaceOnUse" x1="113.2349" y1="380.7813" x2="1042.2701" y2="380.7813" gradientTransform="matrix(0.9432 0 0 -0.9432 -120.9314 608.7197)">
			<stop  offset="0.0015" style="stop-color:#DA8CFF"/>
			<stop  offset="1" style="stop-color:#9A55FF"/>
		</linearGradient>
		<path fill="url(#SVGID_7_)" d="M135.819,244.686l-61.493-30.682c-1.566-0.783-3.264-0.783-4.83,0L8.003,244.686
			C6.175,245.6,5,247.558,5,249.515c0,2.09,1.175,3.918,3.003,4.831l61.494,30.813c0.783,0.39,1.566,0.522,2.479,0.522
			c0.784,0,1.698-0.133,2.482-0.522l61.493-30.684c1.828-0.913,3.002-2.741,3.002-4.828
			C138.823,247.558,137.647,245.6,135.819,244.686z M71.846,274.321l-49.351-24.807l49.351-24.673l49.351,24.673L71.846,274.321z"/>
	</g>
</g>
<g>
	<g>
		
			<linearGradient id="SVGID_8_" gradientUnits="userSpaceOnUse" x1="7.9424" y1="256.6445" x2="884.2524" y2="256.6445" gradientTransform="matrix(0.0165 0.9999 -0.9999 0.0165 326.6766 151.2767)">
			<stop  offset="0.0015" style="stop-color:#DA8CFF"/>
			<stop  offset="1" style="stop-color:#9A55FF"/>
		</linearGradient>
		<path fill="url(#SVGID_8_)" d="M77.54,313.302l29.662-61.991c0.757-1.579,0.729-3.277-0.081-4.83l-31.693-60.978
			c-0.945-1.813-2.921-2.955-4.879-2.922c-2.089,0.034-3.897,1.24-4.78,3.083l-29.792,61.995c-0.378,0.789-0.496,1.573-0.48,2.486
			c0.013,0.784,0.159,1.695,0.562,2.474l31.695,60.976c0.944,1.814,2.791,2.958,4.878,2.923
			C74.717,316.354,76.656,315.146,77.54,313.302z M46.849,249.826l23.987-49.753l25.488,48.937l-23.856,49.751L46.849,249.826z"/>
	</g>
</g>
</svg>
